<?xml version="1.0" encoding="utf-8"?>
<!-- Generator: Adobe Illustrator 24.0.1, SVG Export Plug-In . SVG Version: 6.00 Build 0)  -->
<svg version="1.1" id="图层_1" xmlns="http://www.w3.org/2000/svg" xmlns:xlink="http://www.w3.org/1999/xlink" x="0px" y="0px"
	 viewBox="0 0 500 500" style="enable-background:new 0 0 500 500;" xml:space="preserve">
<style type="text/css">
	.st0{fill:#E8F0F9;}
	.st1{fill:none;stroke:#05070F;stroke-width:30;stroke-miterlimit:10;}
	.st2{fill:#05070F;}
</style>
<title>smooscroll-white</title>
<path class="st0" d="M130,0h240c71.8,0,130,58.2,130,130v240c0,71.8-58.2,130-130,130H130C58.2,500,0,441.8,0,370V130
	C0,58.2,58.2,0,130,0z"/>
<path class="st1" d="M130,100h140c16.6,0,30,13.4,30,30v240c0,16.6-13.4,30-30,30H130c-16.6,0-30-13.4-30-30V130
	C100,113.4,113.4,100,130,100z"/>
<path class="st1" d="M380,100L380,100c16.6,0,30,13.4,30,30v240c0,16.6-13.4,30-30,30l0,0c-16.6,0-30-13.4-30-30V130
	C350,113.4,363.4,100,380,100z"/>
<path class="st2" d="M380,190L380,190c9.4,0,17,7.6,17,17v166c0,9.4-7.6,17-17,17l0,0c-9.4,0-17-7.6-17-17V207
	C363,197.6,370.6,190,380,190z"/>
<path class="st2" d="M145,150h110c11,0,20,9,20,20l0,0c0,11-9,20-20,20H145c-11,0-20-9-20-20l0,0C125,159,134,150,145,150z"/>
<path class="st2" d="M145,200h110c11,0,20,9,20,20l0,0c0,11-9,20-20,20H145c-11,0-20-9-20-20l0,0C125,209,134,200,145,200z"/>
<path class="st2" d="M145,250h110c11,0,20,9,20,20l0,0c0,11-9,20-20,20H145c-11,0-20-9-20-20l0,0C125,259,134,250,145,250z"/>
</svg>
